<?xml version="1.0" encoding="iso-8859-1"?>
<!-- Generator: Adobe Illustrator 19.1.0, SVG Export Plug-In . SVG Version: 6.00 Build 0)  -->
<svg xmlns="http://www.w3.org/2000/svg" xmlns:xlink="http://www.w3.org/1999/xlink" version="1.1" id="Capa_1" x="0px" y="0px" viewBox="0 0 31.739 31.739" style="enable-background:new 0 0 31.739 31.739;" xml:space="preserve" width="512px" height="512px">
<g>
	<path d="M15.87,0c-0.999,0-2.084,0.104-3.057,0.295c-0.39,0.075-0.701,0.369-0.8,0.754   c-0.099,0.385,0.033,0.793,0.338,1.047c0.814,0.679,1.145,1.146,0.825,1.958C13.091,4.27,12.831,4.93,11.815,4.93   c-0.225,0-0.458-0.034-0.676-0.1c-0.385-0.114-0.802,0.004-1.067,0.306c-0.266,0.302-0.333,0.73-0.17,1.097   c0.551,1.251,0.486,1.927-0.236,2.495C9.311,9.008,8.921,9.15,8.507,9.15c-0.68,0-1.205-0.361-1.353-0.537   C6.902,8.316,6.504,8.187,6.125,8.277C5.748,8.369,5.452,8.666,5.364,9.046L5.311,9.28c-0.219,0.982-0.424,1.692-1.074,1.87   c-0.191,0.053-0.373,0.08-0.538,0.08c-0.324,0-0.815-0.087-1.342-0.837c-0.232-0.331-0.638-0.495-1.036-0.42   c-0.398,0.076-0.714,0.378-0.809,0.772C0.216,11.983,0,14.138,0,15.87c0,8.75,7.119,15.869,15.87,15.869   c8.75,0,15.869-7.119,15.869-15.869C31.739,7.119,24.62,0,15.87,0z M15.87,29.679c-7.615,0-13.81-6.194-13.81-13.808   c0-0.913,0.066-1.972,0.173-2.911c0.532,0.256,1.046,0.332,1.465,0.332c0.349,0,0.714-0.053,1.083-0.153   c1.278-0.351,1.887-1.32,2.215-2.224c0.452,0.181,0.966,0.296,1.511,0.296c0.875,0,1.717-0.298,2.434-0.863   c1.101-0.866,1.544-1.999,1.327-3.381c1.316-0.142,2.333-0.909,2.825-2.157c0.439-1.115,0.283-2.021-0.07-2.722   c0.286-0.017,0.571-0.026,0.848-0.026c7.614,0,13.81,6.194,13.81,13.81C29.68,23.484,23.484,29.679,15.87,29.679z" fill="#575757"/>
	<path d="M13.966,20.715c-1.335,0-2.421,1.085-2.421,2.42c0,1.333,1.086,2.419,2.421,2.419   c1.333,0,2.419-1.086,2.419-2.419C16.385,21.8,15.299,20.715,13.966,20.715z M13.966,24.524c-0.767,0-1.391-0.624-1.391-1.39   c0-0.767,0.624-1.39,1.391-1.39c0.766,0,1.389,0.623,1.389,1.39C15.355,23.9,14.731,24.524,13.966,24.524z" fill="#575757"/>
	<path d="M22.839,19.052c-1.334,0-2.419,1.086-2.419,2.42s1.085,2.42,2.419,2.42   c1.335,0,2.42-1.086,2.42-2.42S24.174,19.052,22.839,19.052z M22.839,22.861c-0.766,0-1.389-0.623-1.389-1.39   c0-0.766,0.623-1.39,1.389-1.39c0.767,0,1.391,0.624,1.391,1.39C24.23,22.238,23.605,22.861,22.839,22.861z" fill="#575757"/>
	<path d="M24.294,9.726c-1.335,0-2.42,1.086-2.42,2.42c0,1.335,1.085,2.42,2.42,2.42   c1.333,0,2.419-1.085,2.419-2.42C26.713,10.812,25.627,9.726,24.294,9.726z M24.294,13.536c-0.768,0-1.391-0.624-1.391-1.391   c0-0.766,0.623-1.39,1.391-1.39c0.766,0,1.389,0.624,1.389,1.39C25.683,12.912,25.06,13.536,24.294,13.536z" fill="#575757"/>
	<path d="M19.146,8.741c-0.908,0-1.648,0.739-1.648,1.648c0,0.91,0.739,1.649,1.648,1.649   s1.647-0.739,1.647-1.649C20.793,9.48,20.054,8.741,19.146,8.741z M19.146,11.008c-0.341,0-0.617-0.277-0.617-0.619   c0-0.34,0.276-0.617,0.617-0.617c0.341,0,0.617,0.277,0.617,0.617C19.763,10.73,19.486,11.008,19.146,11.008z" fill="#575757"/>
</g>
<g>
</g>
<g>
</g>
<g>
</g>
<g>
</g>
<g>
</g>
<g>
</g>
<g>
</g>
<g>
</g>
<g>
</g>
<g>
</g>
<g>
</g>
<g>
</g>
<g>
</g>
<g>
</g>
<g>
</g>
</svg>
